# xmcd CD database file
#
# Track frame offsets:
#	150
#	19390
#	39805
#	65765
#	85025
#	105502
#
# Disc length: 1749 seconds
#
# Revision: 0
# Processed by: cddbd v1.5.1PL0 Copyright (c) Steve Scherf et al.
# Submitted via: CDex 1.51
#
DISCID=4106d306
DTITLE=NAOMI YOSHIMURA - 太陽の公園
DYEAR=2004
DGENRE=JPop
TTITLE0=太陽の公園
TTITLE1=遠回り
TTITLE2=紅茶の記憶
TTITLE3=太陽の公園（Instrumental）
TTITLE4=遠回り（Instrumental）
TTITLE5=紅茶の記憶（Instrumental）
EXTD=YEAR: 2004/05/26
EXTT0=
EXTT1=
EXTT2=
EXTT3=
EXTT4=
EXTT5=
PLAYORDER=
